<svg width="26" height="31" viewBox="0 0 26 31" fill="none" xmlns="http://www.w3.org/2000/svg">
<path d="M0.4 15.288C0.505058 15.3785 0.624606 15.4444 0.751819 15.4818C0.879032 15.5193 1.01142 15.5275 1.14142 15.5062C1.27142 15.4849 1.39649 15.4343 1.50949 15.3574C1.62249 15.2806 1.72121 15.1789 1.8 15.0581C2.40546 14.1306 3.19055 13.3777 4.09311 12.8592C4.99567 12.3407 5.99091 12.0707 7 12.0707C8.00909 12.0707 9.00433 12.3407 9.90689 12.8592C10.8094 13.3777 11.5945 14.1306 12.2 15.0581C12.3593 15.3017 12.5963 15.4626 12.8588 15.5054C13.1214 15.5483 13.388 15.4695 13.6 15.2865C13.6756 15.2219 13.7425 15.145 13.7987 15.0581C14.4042 14.1306 15.1893 13.3777 16.0919 12.8592C16.9944 12.3407 17.9897 12.0707 18.9988 12.0707C20.0078 12.0707 21.0031 12.3407 21.9056 12.8592C22.8082 13.3777 23.5933 14.1306 24.1987 15.0581C24.358 15.3019 24.5951 15.463 24.8578 15.506C25.1204 15.549 25.3872 15.4703 25.5994 15.2872C25.8115 15.1042 25.9518 14.8318 25.9891 14.53C26.0265 14.2282 25.958 13.9217 25.7987 13.6779C24.9136 12.3144 23.7332 11.2409 22.375 10.564C23.1196 9.78291 23.6413 8.76136 23.8716 7.63347C24.1019 6.50557 24.03 5.32402 23.6654 4.24389C23.3009 3.16376 22.6606 2.23551 21.8287 1.58097C20.9967 0.926427 20.012 0.576172 19.0037 0.576172C17.9955 0.576172 17.0108 0.926427 16.1788 1.58097C15.3469 2.23551 14.7066 3.16376 14.3421 4.24389C13.9775 5.32402 13.9056 6.50557 14.1359 7.63347C14.3662 8.76136 14.8879 9.78291 15.6325 10.564C14.6518 11.0513 13.7609 11.7488 13.0075 12.6194C12.2541 11.7488 11.3632 11.0513 10.3825 10.564C11.1271 9.78291 11.6488 8.76136 11.8791 7.63347C12.1094 6.50557 12.0375 5.32402 11.6729 4.24389C11.3084 3.16376 10.6681 2.23551 9.83616 1.58097C9.00423 0.926427 8.01952 0.576172 7.01125 0.576172C6.00298 0.576172 5.01827 0.926427 4.18634 1.58097C3.35442 2.23551 2.71415 3.16376 2.34957 4.24389C1.98499 5.32402 1.91313 6.50557 2.14342 7.63347C2.37371 8.76136 2.89539 9.78291 3.64 10.564C2.27581 11.2387 1.08963 12.3129 0.2 13.6793C0.121207 13.8 0.0638779 13.9374 0.0312863 14.0836C-0.00130532 14.2297 -0.00852115 14.3819 0.0100506 14.5312C0.0286223 14.6806 0.072618 14.8243 0.139526 14.9542C0.206433 15.084 0.294943 15.1974 0.4 15.288ZM19 2.87854C19.5933 2.87854 20.1734 3.08071 20.6667 3.45947C21.1601 3.83824 21.5446 4.3766 21.7716 5.00646C21.9987 5.63633 22.0581 6.32942 21.9424 6.99809C21.8266 7.66675 21.5409 8.28096 21.1213 8.76304C20.7018 9.24512 20.1672 9.57342 19.5853 9.70642C19.0033 9.83943 18.4001 9.77116 17.8519 9.51027C17.3038 9.24937 16.8352 8.80755 16.5056 8.24068C16.1759 7.67382 16 7.00736 16 6.3256C16 5.41138 16.3161 4.53461 16.8787 3.88816C17.4413 3.24171 18.2044 2.87854 19 2.87854ZM7 2.87854C7.59334 2.87854 8.17336 3.08071 8.66671 3.45947C9.16006 3.83824 9.54458 4.3766 9.77164 5.00646C9.9987 5.63633 10.0581 6.32942 9.94236 6.99809C9.8266 7.66675 9.54088 8.28096 9.12132 8.76304C8.70176 9.24512 8.16721 9.57342 7.58527 9.70642C7.00333 9.83943 6.40013 9.77116 5.85195 9.51027C5.30377 9.24937 4.83524 8.80755 4.50559 8.24068C4.17595 7.67382 4 7.00736 4 6.3256C4 5.41138 4.31607 4.53461 4.87868 3.88816C5.44129 3.24171 6.20435 2.87854 7 2.87854ZM22.375 25.5013C23.1196 24.7202 23.6413 23.6986 23.8716 22.5707C24.1019 21.4428 24.03 20.2613 23.6654 19.1811C23.3009 18.101 22.6606 17.1728 21.8287 16.5182C20.9967 15.8637 20.012 15.5134 19.0037 15.5134C17.9955 15.5134 17.0108 15.8637 16.1788 16.5182C15.3469 17.1728 14.7066 18.101 14.3421 19.1811C13.9775 20.2613 13.9056 21.4428 14.1359 22.5707C14.3662 23.6986 14.8879 24.7202 15.6325 25.5013C14.6518 25.9886 13.7609 26.6861 13.0075 27.5566C12.2541 26.6861 11.3632 25.9886 10.3825 25.5013C11.1271 24.7202 11.6488 23.6986 11.8791 22.5707C12.1094 21.4428 12.0375 20.2613 11.6729 19.1811C11.3084 18.101 10.6681 17.1728 9.83616 16.5182C9.00423 15.8637 8.01952 15.5134 7.01125 15.5134C6.00298 15.5134 5.01827 15.8637 4.18634 16.5182C3.35442 17.1728 2.71415 18.101 2.34957 19.1811C1.98499 20.2613 1.91313 21.4428 2.14342 22.5707C2.37371 23.6986 2.89539 24.7202 3.64 25.5013C2.27581 26.1759 1.08963 27.2501 0.2 28.6166C0.121207 28.7373 0.0638779 28.8747 0.0312863 29.0208C-0.00130532 29.167 -0.00852115 29.3191 0.0100506 29.4685C0.0286223 29.6179 0.072618 29.7616 0.139526 29.8914C0.206433 30.0212 0.294943 30.1347 0.4 30.2252C0.505058 30.3157 0.624606 30.3816 0.751819 30.4191C0.879032 30.4565 1.01142 30.4648 1.14142 30.4435C1.27142 30.4221 1.39649 30.3716 1.50949 30.2947C1.62249 30.2178 1.72121 30.1161 1.8 29.9954C2.40546 29.0678 3.19055 28.315 4.09311 27.7964C4.99567 27.2779 5.99091 27.008 7 27.008C8.00909 27.008 9.00433 27.2779 9.90689 27.7964C10.8094 28.315 11.5945 29.0678 12.2 29.9954C12.3593 30.239 12.5963 30.3999 12.8588 30.4427C13.1214 30.4855 13.388 30.4068 13.6 30.2238C13.6756 30.1592 13.7425 30.0823 13.7987 29.9954C14.4042 29.0678 15.1893 28.315 16.0919 27.7964C16.9944 27.2779 17.9897 27.008 18.9988 27.008C20.0078 27.008 21.0031 27.2779 21.9056 27.7964C22.8082 28.315 23.5933 29.0678 24.1987 29.9954C24.358 30.2392 24.5951 30.4003 24.8578 30.4433C25.1204 30.4862 25.3872 30.4075 25.5994 30.2245C25.8115 30.0415 25.9518 29.7691 25.9891 29.4673C26.0265 29.1654 25.958 28.8589 25.7987 28.6151C24.9136 27.2516 23.7332 26.1781 22.375 25.5013ZM7 17.8158C7.59334 17.8158 8.17336 18.018 8.66671 18.3967C9.16006 18.7755 9.54458 19.3139 9.77164 19.9437C9.9987 20.5736 10.0581 21.2667 9.94236 21.9353C9.8266 22.604 9.54088 23.2182 9.12132 23.7003C8.70176 24.1824 8.16721 24.5107 7.58527 24.6437C7.00333 24.7767 6.40013 24.7084 5.85195 24.4475C5.30377 24.1866 4.83524 23.7448 4.50559 23.1779C4.17595 22.6111 4 21.9446 4 21.2629C4 20.3486 4.31607 19.4719 4.87868 18.8254C5.44129 18.179 6.20435 17.8158 7 17.8158ZM19 17.8158C19.5933 17.8158 20.1734 18.018 20.6667 18.3967C21.1601 18.7755 21.5446 19.3139 21.7716 19.9437C21.9987 20.5736 22.0581 21.2667 21.9424 21.9353C21.8266 22.604 21.5409 23.2182 21.1213 23.7003C20.7018 24.1824 20.1672 24.5107 19.5853 24.6437C19.0033 24.7767 18.4001 24.7084 17.8519 24.4475C17.3038 24.1866 16.8352 23.7448 16.5056 23.1779C16.1759 22.6111 16 21.9446 16 21.2629C16 20.3486 16.3161 19.4719 16.8787 18.8254C17.4413 18.179 18.2044 17.8158 19 17.8158Z" fill="#2993D5"/>
</svg>
