<svg width="38" height="37" viewBox="0 0 38 37" fill="none" xmlns="http://www.w3.org/2000/svg">
<path d="M18.688 0C15.029 0 11.4523 1.08501 8.40995 3.11781C5.36764 5.15062 2.99645 8.03992 1.59623 11.4204C0.196004 14.8008 -0.170358 18.5205 0.543469 22.1092C1.2573 25.6978 3.01925 28.9942 5.60652 31.5815C8.19379 34.1687 11.4902 35.9307 15.0788 36.6445C18.6675 37.3583 22.3872 36.992 25.7676 35.5918C29.1481 34.1915 32.0374 31.8204 34.0702 28.778C36.103 25.7357 37.188 22.159 37.188 18.5C37.1828 13.5951 35.232 8.89254 31.7637 5.42424C28.2954 1.95594 23.5929 0.00517968 18.688 0ZM18.688 34.1538C15.592 34.1538 12.5654 33.2358 9.99118 31.5157C7.41692 29.7956 5.41053 27.3508 4.22573 24.4905C3.04093 21.6301 2.73093 18.4826 3.33493 15.4461C3.93894 12.4095 5.42983 9.62029 7.61905 7.43106C9.80828 5.24183 12.5975 3.75094 15.6341 3.14694C18.6706 2.54293 21.8181 2.85293 24.6785 4.03773C27.5388 5.22253 29.9836 7.22893 31.7037 9.80319C33.4238 12.3774 34.3418 15.404 34.3418 18.5C34.3371 22.6502 32.6864 26.6291 29.7517 29.5637C26.8171 32.4984 22.8382 34.1491 18.688 34.1538ZM10.1495 14.9423C10.1495 14.5201 10.2747 14.1074 10.5093 13.7564C10.7438 13.4053 11.0772 13.1317 11.4673 12.9702C11.8573 12.8086 12.2865 12.7663 12.7006 12.8487C13.1147 12.9311 13.495 13.1344 13.7935 13.4329C14.0921 13.7314 14.2954 14.1118 14.3777 14.5259C14.4601 14.9399 14.4178 15.3691 14.2563 15.7592C14.0947 16.1492 13.8211 16.4826 13.4701 16.7172C13.119 16.9517 12.7063 17.0769 12.2841 17.0769C11.718 17.0769 11.1751 16.852 10.7747 16.4517C10.3744 16.0514 10.1495 15.5084 10.1495 14.9423ZM27.2265 14.9423C27.2265 15.3645 27.1013 15.7772 26.8667 16.1282C26.6321 16.4793 26.2988 16.7529 25.9087 16.9144C25.5187 17.076 25.0895 17.1183 24.6754 17.0359C24.2613 16.9535 23.881 16.7502 23.5824 16.4517C23.2839 16.1532 23.0806 15.7728 22.9982 15.3587C22.9159 14.9447 22.9581 14.5155 23.1197 14.1254C23.2813 13.7354 23.5549 13.402 23.9059 13.1674C24.2569 12.9329 24.6697 12.8077 25.0918 12.8077C25.658 12.8077 26.2009 13.0326 26.6012 13.4329C27.0016 13.8332 27.2265 14.3762 27.2265 14.9423ZM27.0361 23.4808C25.2057 26.6453 22.1621 28.4615 18.688 28.4615C15.2139 28.4615 12.1721 26.6471 10.3416 23.4808C10.2387 23.3188 10.1695 23.1377 10.1384 22.9483C10.1072 22.7589 10.1147 22.5652 10.1604 22.3788C10.2061 22.1923 10.2889 22.0171 10.4041 21.8635C10.5192 21.71 10.6643 21.5813 10.8304 21.4853C10.9966 21.3892 11.1805 21.3278 11.371 21.3046C11.5615 21.2815 11.7548 21.2971 11.9391 21.3506C12.1234 21.4041 12.295 21.4943 12.4436 21.6158C12.5922 21.7373 12.7146 21.8876 12.8036 22.0577C14.1324 24.3542 16.2207 25.6154 18.688 25.6154C21.1553 25.6154 23.2436 24.3524 24.5706 22.0577C24.7593 21.7307 25.0702 21.4922 25.4348 21.3944C25.7995 21.2967 26.188 21.3478 26.5149 21.5365C26.8419 21.7252 27.0804 22.0361 27.1782 22.4007C27.2759 22.7653 27.2248 23.1538 27.0361 23.4808Z" fill="#1C79F2"/>
</svg>
