<svg width="17" height="16" viewBox="0 0 17 16" fill="none" xmlns="http://www.w3.org/2000/svg">
<path d="M15.188 3.5V7.5C15.188 7.63261 15.1353 7.75979 15.0416 7.85355C14.9478 7.94732 14.8206 8 14.688 8C14.5554 8 14.4282 7.94732 14.3345 7.85355C14.2407 7.75979 14.188 7.63261 14.188 7.5V4.70687L9.04177 9.85375C8.99534 9.90024 8.94019 9.93712 8.87949 9.96228C8.81879 9.98744 8.75373 10.0004 8.68802 10.0004C8.62231 10.0004 8.55725 9.98744 8.49655 9.96228C8.43585 9.93712 8.38071 9.90024 8.33427 9.85375L6.18802 7.70687L2.04177 11.8538C1.94795 11.9476 1.8207 12.0003 1.68802 12.0003C1.55534 12.0003 1.42809 11.9476 1.33427 11.8538C1.24045 11.7599 1.18774 11.6327 1.18774 11.5C1.18774 11.3673 1.24045 11.2401 1.33427 11.1462L5.83427 6.64625C5.88071 6.59976 5.93585 6.56288 5.99655 6.53772C6.05725 6.51256 6.12231 6.49961 6.18802 6.49961C6.25373 6.49961 6.31879 6.51256 6.37949 6.53772C6.44019 6.56288 6.49534 6.59976 6.54177 6.64625L8.68802 8.79313L13.4811 4H10.688C10.5554 4 10.4282 3.94732 10.3345 3.85355C10.2407 3.75979 10.188 3.63261 10.188 3.5C10.188 3.36739 10.2407 3.24021 10.3345 3.14645C10.4282 3.05268 10.5554 3 10.688 3H14.688C14.8206 3 14.9478 3.05268 15.0416 3.14645C15.1353 3.24021 15.188 3.36739 15.188 3.5Z" fill="white"/>
</svg>
